HIERARCHY
ROOT Hips
{
	OFFSET 0.000000 0.000000 0.000000
	CHANNELS 6 Xposition Yposition Zposition Zrotation Yrotation Xrotation 
	JOINT LowerBack
	{
		OFFSET 0.000000 0.000000 0.000000
		CHANNELS 3 Zrotation Yrotation Xrotation
		JOINT Spine
		{
			OFFSET 0.028270 2.035590 -0.193380
			CHANNELS 3 Zrotation Yrotation Xrotation
			JOINT Spine1
			{
				OFFSET 0.056720 2.048850 -0.042750
				CHANNELS 3 Zrotation Yrotation Xrotation
				JOINT Neck
				{
					OFFSET 0.000000 0.000000 0.000000
					CHANNELS 3 Zrotation Yrotation Xrotation
					JOINT Neck1
					{
						OFFSET -0.054170 1.746240 0.172020
						CHANNELS 3 Zrotation Yrotation Xrotation
						JOINT Head
						{
							OFFSET 0.104070 1.761360 -0.123970
							CHANNELS 3 Zrotation Yrotation Xrotation
							End Site
							{
								OFFSET 0.000000 0.000000 0.000000
							}
						}
					}
				}
				JOINT LeftShoulder
				{
					OFFSET 0.000000 0.000000 0.000000
					CHANNELS 3 Zrotation Yrotation Xrotation
					JOINT LeftArm
					{
						OFFSET 3.362410 1.200890 -0.311210
						CHANNELS 3 Zrotation Yrotation Xrotation
						JOINT LeftForeArm
						{
							OFFSET 4.983000 -0.000000 -0.000000
							CHANNELS 3 Zrotation Yrotation Xrotation
							JOINT LeftHand
							{
								OFFSET 3.483560 -0.000000 -0.000000
								CHANNELS 3 Zrotation Yrotation Xrotation
								JOINT LeftFingerBase
								{
									OFFSET 0.000000 0.000000 0.000000
									CHANNELS 3 Zrotation Yrotation Xrotation
									JOINT LeftHandIndex1
									{
										OFFSET 0.715260 -0.000000 -0.000000
										CHANNELS 3 Zrotation Yrotation Xrotation
										End Site
										{
											OFFSET 0.000000 0.000000 0.000000
										}
									}
								}
								JOINT LThumb
								{
									OFFSET 0.000000 0.000000 0.000000
									CHANNELS 3 Zrotation Yrotation Xrotation
									End Site
									{
										OFFSET 0.000000 0.000000 0.000000
									}
								}
							}
						}
					}
				}
				JOINT RightShoulder
				{
					OFFSET 0.000000 0.000000 0.000000
					CHANNELS 3 Zrotation Yrotation Xrotation
					JOINT RightArm
					{
						OFFSET -3.136600 1.374050 -0.404650
						CHANNELS 3 Zrotation Yrotation Xrotation
						JOINT RightForeArm
						{
							OFFSET -5.241900 -0.000000 -0.000000
							CHANNELS 3 Zrotation Yrotation Xrotation
							JOINT RightHand
							{
								OFFSET -3.444170 -0.000000 -0.000000
								CHANNELS 3 Zrotation Yrotation Xrotation
								JOINT RightFingerBase
								{
									OFFSET 0.000000 0.000000 0.000000
									CHANNELS 3 Zrotation Yrotation Xrotation
									JOINT RightHandIndex1
									{
										OFFSET -0.622530 -0.000000 -0.000000
										CHANNELS 3 Zrotation Yrotation Xrotation
										End Site
										{
											OFFSET 0.000000 0.000000 0.000000
										}
									}
								}
								JOINT RThumb
								{
									OFFSET 0.000000 0.000000 0.000000
									CHANNELS 3 Zrotation Yrotation Xrotation
									End Site
									{
										OFFSET 0.000000 0.000000 0.000000
									}
								}
							}
						}
					}
				}
			}
		}
	}
}
}
MOTION
Frames: 9
Frame Time: 0.008333
1.024491 16.617036 -0.615084 20.791228 78.207210 26.665905 4.304917 -7.528156 -3.908727 1.168785 -7.911049 -3.384419 -3.443940 -8.051598 1.611755 7.594800 -20.760947 -10.848069 -1.046207 -0.022337 -0.751698 0.000000 0.000000 0.000000 11.445319 1.736081 0.694648 -18.837604 -7.101697 -7.701523 -0.375958 -80.786731 -0.056845 6.474873 2.947287 0.141443 -0.068975 0.475718 -0.000000 0.000000 0.000000 0.000000 0.000000 0.000000 0.000000 7.641115 -19.820308 1.983169 57.723700 -33.800996 -30.111873 3.523319 33.240075 -0.011128 -1.110952 -3.515832 0.039249 0.176081 -0.053013 -0.000000 0.000000 0.000000 0.000000 0.000000 0.000000 0.000000 
1.187205 16.560150 -0.568844 17.382969 78.048072 23.150975 4.947540 -7.342189 -3.589242 1.231892 -7.767048 -3.330961 -3.677251 -7.900547 1.593436 7.786056 -20.735765 -11.075429 -1.174925 -0.029675 -0.819381 0.000000 0.000000 0.000000 10.708886 2.286878 0.706656 -18.891110 -7.812271 -8.434777 -0.413918 -81.628309 -0.060542 6.804106 2.704993 0.133572 -0.073189 0.485224 -0.000000 0.000000 0.000000 0.000000 0.000000 0.000000 0.000000 8.193886 -19.707277 2.041049 58.592987 -32.738060 -30.544938 3.481332 33.351906 -0.011025 -1.430906 -3.434115 0.047653 0.173516 -0.053572 -0.000000 0.000000 0.000000 0.000000 0.000000 0.000000 0.000000 
1.343301 16.499885 -0.521798 14.078809 77.866812 19.717183 5.549190 -7.157297 -3.202229 1.278486 -7.620437 -3.263675 -3.939088 -7.746767 1.557807 8.033153 -20.665954 -11.294364 -1.322267 -0.038803 -0.885641 0.000000 0.000000 0.000000 10.008210 2.747975 0.712171 -19.038952 -8.463508 -9.184817 -0.450167 -82.495662 -0.064544 7.160902 2.413088 0.121507 -0.077998 0.495124 -0.000000 0.000000 0.000000 0.000000 0.000000 0.000000 0.000000 8.854235 -19.555025 2.102697 59.489845 -31.564787 -30.910774 3.439472 33.413147 -0.011144 -1.735583 -3.443702 0.056752 0.170344 -0.053434 -0.000000 0.000000 0.000000 0.000000 0.000000 0.000000 0.000000 
1.492959 16.437120 -0.473441 10.990968 77.670957 16.479526 6.089157 -6.979846 -2.760135 1.305268 -7.476224 -3.185663 -4.228891 -7.595207 1.503009 8.332571 -20.540315 -11.494565 -1.491476 -0.050181 -0.947506 0.000000 0.000000 0.000000 9.349676 3.100430 0.712797 -19.295170 -9.016543 -9.927444 -0.483345 -83.394097 -0.068794 7.543734 2.067793 0.104351 -0.083521 0.505142 -0.000000 0.000000 0.000000 0.000000 0.000000 0.000000 0.000000 9.629711 -19.355273 2.164569 60.390828 -30.288683 -31.199063 3.396555 33.419632 -0.011384 -2.034907 -3.513331 0.066848 0.166533 -0.052838 -0.000000 0.000000 0.000000 0.000000 0.000000 0.000000 0.000000 
1.636725 16.373007 -0.423354 8.193998 77.462492 13.519668 6.553101 -6.812569 -2.279838 1.310321 -7.336215 -3.101177 -4.544689 -7.447492 1.427885 8.677287 -20.348131 -11.665132 -1.684944 -0.064193 -1.001849 0.000000 0.000000 0.000000 8.735998 3.334516 0.710380 -19.675744 -9.441852 -10.636135 -0.512110 -84.321136 -0.073233 7.953226 1.666302 0.081207 -0.089922 0.514975 -0.000000 0.000000 0.000000 0.000000 0.000000 0.000000 0.000000 10.521419 -19.098813 2.223000 61.270594 -28.915675 -31.392098 3.351666 33.361474 -0.011627 -2.345272 -3.602139 0.078041 0.162084 -0.052020 -0.000000 0.000000 0.000000 0.000000 0.000000 0.000000 0.000000 
1.775246 16.308767 -0.371317 5.713758 77.239204 10.874214 6.935844 -6.654998 -1.780127 1.293932 -7.199630 -3.014883 -4.882450 -7.302657 1.332506 9.056412 -20.081184 -11.795665 -1.903261 -0.081040 -1.045709 0.000000 0.000000 0.000000 8.167243 3.451334 0.706613 -20.201026 -9.723842 -11.283948 -0.535255 -85.262312 -0.077786 8.390331 1.207891 0.051081 -0.097340 0.524304 -0.000000 0.000000 0.000000 0.000000 0.000000 0.000000 0.000000 11.520803 -18.777975 2.274661 62.104965 -27.447401 -31.465475 3.304209 33.222633 -0.011767 -2.687141 -3.664441 0.090033 0.157026 -0.051196 -0.000000 0.000000 0.000000 0.000000 0.000000 0.000000 0.000000 
1.909313 16.245826 -0.317072 3.571312 76.996722 8.576575 7.233341 -6.505729 -1.281454 1.256739 -7.065001 -2.931837 -5.237577 -7.159063 1.216451 9.458197 -19.729203 -11.875248 -2.146419 -0.100848 -1.075958 0.000000 0.000000 0.000000 7.639351 3.453663 0.704432 -20.883933 -9.845873 -11.845596 -0.551492 -86.199815 -0.082348 8.856385 0.699766 0.013574 -0.105935 0.532641 -0.000000 0.000000 0.000000 0.000000 0.000000 0.000000 0.000000 12.617100 -18.382086 2.316451 62.871028 -25.892302 -31.382599 3.253755 32.993202 -0.011728 -3.084144 -3.658758 0.102224 0.151421 -0.050489 -0.000000 0.000000 0.000000 0.000000 0.000000 0.000000 0.000000 
2.039834 16.185518 -0.260801 1.715844 76.728739 6.591300 7.458087 -6.360968 -0.803519 1.203752 -6.929377 -2.856567 -5.601299 -7.013844 1.082428 9.865850 -19.289649 -11.896364 -2.410490 -0.123316 -1.090489 0.000000 0.000000 0.000000 7.148975 3.361516 0.704817 -21.752893 -9.820320 -12.299847 -0.560311 -87.092906 -0.086804 9.351892 0.149647 -0.031707 -0.115704 0.539612 -0.000000 0.000000 0.000000 0.000000 0.000000 0.000000 0.000000 13.781659 -17.908509 2.346529 63.554254 -24.243926 -31.110428 3.200518 32.650720 -0.011460 -3.554399 -3.547516 0.113316 0.145347 -0.050030 -0.000000 0.000000 0.000000 0.000000 0.000000 0.000000 0.000000 
2.167681 16.129161 -0.202682 0.105247 76.428899 4.891064 7.621279 -6.217544 -0.365168 1.140038 -6.790442 -2.793001 -5.963543 -6.864916 0.933981 10.262942 -18.760802 -11.853694 -2.689947 -0.147928 -1.087794 0.000000 0.000000 0.000000 6.690850 3.200719 0.708944 -22.830476 -9.666721 -12.629224 -0.561631 -87.892872 -0.091045 9.879486 -0.427732 -0.084362 -0.126624 0.544756 -0.000000 0.000000 0.000000 0.000000 0.000000 0.000000 0.000000 14.982135 -17.355383 2.363495 64.145999 -22.498161 -30.609851 3.144965 32.180820 -0.010972 -4.110786 -3.308069 0.121209 0.138922 -0.049876 -0.000000 0.000000 0.000000 0.000000 0.000000 0.000000 0.000000 
